<?xml version="1.0" encoding="UTF-8" standalone="no"?>
<svg width="32px" height="32px" viewBox="0 0 32 32" version="1.1" xmlns="http://www.w3.org/2000/svg" xmlns:xlink="http://www.w3.org/1999/xlink">
    <!-- Generator: Sketch 41.2 (35397) - http://www.bohemiancoding.com/sketch -->
    <title>elasticsearch</title>
    <desc>Created with Sketch.</desc>
    <defs></defs>
    <g id="-blocks/icons" stroke="none" stroke-width="1" fill="none" fill-rule="evenodd">
        <g id="elasticsearch">
            <path d="M4.3525358,21.5925917 C4.24454226,22.1369011 4.18791946,22.6996489 4.18791946,23.2755939 C4.18791946,28.0346446 8.05399128,31.8926174 12.8230325,31.8926174 C15.8060388,31.8926174 18.4357649,30.383214 19.9870808,28.0880181 L21.2611581,21.5334589 L19.5439609,18.3038807 L11.8826694,14.812429 L4.3525358,21.5925917 Z" id="Combined-Shape-Copy" fill="#34BEB0"></path>
            <path d="M27.6477992,10.2470892 C27.755575,9.70604147 27.8120805,9.14669333 27.8120805,8.57424252 C27.8120805,3.83881913 23.9454524,0 19.1757248,0 C16.197185,0 13.5708176,1.4969845 12.0182924,3.77447384 L10.7399232,10.3511135 L12.1954023,13.4723985 L19.898915,16.9830915 L27.6477992,10.2470892 Z" id="Combined-Shape-Copy-2" fill="#F5BD15"></path>
            <path d="M3.63499917,20.5081059 C1.50416361,19.6492954 0,17.5599465 0,15.1187866 C0,12.6137814 1.58387134,10.4792301 3.80345707,9.66462493 L9.59379112,11.0014289 L10.9538823,13.9181539 L3.63499917,20.5081059 Z" id="Combined-Shape-Copy-3" fill="#2B4790"></path>
            <path d="M28.3604977,11.3893565 C30.4913921,12.2301936 32,14.3158393 32,16.755584 C32,19.3051658 30.3524995,21.4680481 28.0689966,22.2277246 L22.4158777,20.9225993 L20.8283714,17.9369341 L28.3604977,11.3893565 Z" id="Combined-Shape-Copy-4" fill="#176756"></path>
            <path d="M10.6243907,3.72027865 C9.94079497,3.20479929 9.09097771,2.89932886 8.17006483,2.89932886 C5.91148093,2.89932886 4.08053691,4.73673236 4.08053691,7.00328444 C4.08053691,7.5224975 4.17661733,8.01919061 4.35190908,8.47643517 L9.47019802,9.65808528 L10.6243907,3.72027865 Z" id="Combined-Shape-Copy-5" fill="#EA488C"></path>
            <path d="M27.5565388,23.4263133 C27.7217804,23.874284 27.8120805,24.3589963 27.8120805,24.8649684 C27.8120805,27.1449767 25.9784648,28.9932886 23.7165853,28.9932886 C22.7999089,28.9932886 21.9535728,28.6897119 21.2711231,28.1768542 L22.4248266,22.2415642 L27.5565388,23.4263133 Z" id="Combined-Shape-Copy-6" fill="#94C73F"></path>
        </g>
    </g>
</svg>