<?xml version="1.0" encoding="UTF-8" standalone="no"?>
<svg width="31px" height="32px" viewBox="0 0 31 32" version="1.1" xmlns="http://www.w3.org/2000/svg" xmlns:xlink="http://www.w3.org/1999/xlink">
    <!-- Generator: Sketch 41.2 (35397) - http://www.bohemiancoding.com/sketch -->
    <title>postgresql</title>
    <desc>Created with Sketch.</desc>
    <defs></defs>
    <g id="-blocks/icons" stroke="none" stroke-width="1" fill="none" fill-rule="evenodd">
        <g id="postgresql">
            <path d="M18.5755885,0.641233766 C16.5406222,0.305892355 14.0544846,0.16213474 12.2820617,1.38372565 C9.2109375,0.462155032 7.64823458,0.406684924 5.48701299,0.640320617 C3.3257914,0.87395631 1.85825893,2.37246347 1.20271916,3.38139205 C0.547179383,4.39032062 0.0397727273,6.04545455 0.0397727273,7.70231331 C0.0397727273,9.35917208 0.712763799,14.1609172 2.59405438,18.9707792 C4.47534497,23.7806412 6.38443588,23.8075284 6.91284497,23.8075284 C7.44125406,23.8075284 8.18465909,23.726461 8.89306006,23.1017654 C9.78825081,23.9136567 10.5037541,24.1446834 11.7831778,24.2611607 C13.0626015,24.377638 13.9926948,23.8787541 14.1669034,23.8075284 C14.0773133,24.3158482 14.2285917,27.1918628 14.5309456,28.4395292 C14.8332995,29.6871956 15.3079343,30.8196023 16.2725244,31.3915381 C17.2371144,31.963474 18.7050528,32.2325487 20.882711,31.6230722 C23.0603693,31.0135958 23.7853084,28.8873782 24.0424107,27.6724838 C24.299513,26.4575893 24.6653815,22.9328328 24.6653815,22.9328328 C24.6653815,22.9328328 27.2119521,23.1974432 28.8948864,22.1164773 C30.5778206,21.0355114 31.2584213,20.1609172 30.8858563,19.0848214 C30.5132914,18.0087256 29.2567979,18.0019278 28.811181,18.092431 C28.3655641,18.1829343 27.5492086,18.3621144 26.9773742,18.3562297 C29.3467938,14.7497971 30.774858,9.18770292 30.8303571,7.68881899 C30.8858563,6.18993506 30.9168019,4.27221997 29.6266234,2.98792614 C29.0511976,2.41512496 27.8935674,1.15635146 25.9823458,0.536424513 C25.0706209,0.240695962 23.1845603,-0.0563243003 22.0304383,0.0336850649 C20.8763163,0.12369443 19.5961851,0.305892355 18.5755885,0.641233766 Z" id="Path-8" fill="#333333"></path>
            <path d="M15.0166421,22.2997359 C15.0166421,22.2997359 14.8932057,25.8633178 15.2077062,27.7235669 C15.5222067,29.583816 16.4512316,30.6072015 17.3717242,30.961838 C18.2922169,31.3164744 20.5254711,31.0559737 21.6363286,30.2497655 C22.747186,29.4435572 23.117705,28.1488927 23.3040834,26.8879631 C23.4904618,25.6270335 23.9238529,21.901916 23.9238529,21.901916 C23.9238529,21.901916 25.6168544,22.3767243 27.5528124,21.7205733 C29.4887703,21.0644224 30.1298701,19.8112616 30.1298701,19.6067525 C30.1298701,19.4022434 29.843204,18.8437277 29.2712006,18.928065 C28.6991971,19.0124023 26.7302296,19.5211554 25.5310434,18.9632697 C26.2125661,18.1038694 28.919844,13.0556017 29.5248571,9.59742387 C30.1298701,6.13924604 30.0974899,4.89735356 28.9813174,3.65553107 C27.8651448,2.41370858 25.9196058,1.30892539 24.2910848,1.07845019 C22.6625639,0.847974995 20.5988336,0.834746992 18.4810431,1.49887671 C17.0148427,1.14885956 14.2846959,0.934901869 12.4218906,2.29521647 C10.6374832,1.58321398 7.50457711,0.93112244 5.30475209,1.5121747 C3.10492706,2.09322697 2.27793832,3.08070786 1.53004677,4.6487511 C0.782155216,6.21679433 0.910277277,8.67356337 1.01643955,9.56998802 C1.12260183,10.4664127 2.09023111,15.1964385 3.29808925,18.4585059 C4.5059474,21.7205733 5.83255623,22.6692801 6.56506195,22.8205972 C7.29756766,22.9719144 7.88034121,22.8940861 8.61557442,22.0813689 C9.35080762,21.2686516 11.2580919,19.0942199 11.2580919,19.0942199 C11.2580919,19.0942199 12.05319,19.603603 12.9927751,19.603603 C12.7153405,20.0771515 12.4255273,20.5159152 11.7035119,20.7456905 C10.9814965,20.9754659 10.194441,21.0212389 9.80364078,21.3134448 C9.41284052,21.6056507 9.14086088,22.1144039 9.59803005,22.5459587 C10.0551992,22.9775136 12.3658722,24.0821568 14.7509567,22.5280414 C14.9132773,22.4026903 15.0166421,22.2997359 15.0166421,22.2997359 Z" id="Path-7" fill="#FFFFFF"></path>
            <path d="M9.85678589,14.497283 C10.0251563,13.2954911 10.0413223,12.1944654 9.97289432,10.939168 C9.96680232,10.8274114 9.94824352,10.5139593 9.94759442,10.5025016 C9.94485609,10.4541661 9.94270993,10.4132867 9.94111322,10.3786543 C9.9503443,10.37066 9.96054113,10.3621043 9.97164235,10.3530917 C10.0796329,10.2654193 10.2419845,10.1590028 10.4354705,10.0514601 C10.894006,9.79659866 11.4453502,9.57705961 11.9668526,9.45698144 C13.2607611,9.15905337 14.077123,9.47371795 14.3150438,10.5717502 C14.6278927,12.0159498 14.7106804,13.1784993 14.6070206,14.1544228 C14.5273609,14.9043925 14.3555895,15.4837737 14.0475914,16.1923371 C13.9953816,16.312448 13.8032814,16.7393322 13.820109,16.7015856 C13.7288079,16.906387 13.664898,17.0585516 13.6082222,17.2107826 C13.2719761,18.1153952 13.2560288,18.1599339 13.1662017,18.4823554 C13.1503831,18.5391339 13.1358067,18.5947672 13.1225007,18.6493506 C11.1532729,18.6475891 9.54616532,16.714505 9.85678589,14.497283 Z M12.2689632,10.0366919 L12.2508835,10.1644631 C12.2121747,10.4380231 12.6180475,10.8634584 13.0207601,10.9191985 C13.4204753,10.9748475 13.8658628,10.6735744 13.9047595,10.3950892 C13.941742,10.1300481 13.5858531,9.93152137 13.1348493,9.86886356 C12.766802,9.8175826 12.4342887,9.8709105 12.3051478,10.0366919 L12.2689632,10.0366919 Z" id="Combined-Shape" fill="#336791"></path>
            <path d="M24.9581787,19.5844156 C25.2075642,19.8079712 25.9462737,20.0683017 26.5089074,20.0683017 C27.0715412,20.0683017 28.5907219,19.9615749 28.9350649,19.8013981 C28.575802,20.2124262 27.7094367,20.7574079 26.4813683,20.9606214 C25.2533,21.1638349 24.3064439,21.1207636 24.0233492,20.8909808 C23.927799,20.1993146 24.1038051,19.6638121 24.9581787,19.5844156 Z" id="Combined-Shape" fill="#336791"></path>
            <path d="M14.9274241,20.0887457 C14.7659758,19.8628356 14.4918177,19.6757369 14.2649655,19.7240588 C14.0381134,19.7723807 13.9908074,19.8382551 13.6370605,20.2572429 C13.2833137,20.6762307 13.0833289,21.1481908 12.3403732,21.3983318 C11.5974175,21.6484727 11.0894545,21.756655 10.8123616,21.8256413 C10.5352686,21.8946276 10.4043561,21.9679146 10.4043561,21.9679146 C10.4043561,21.9679146 10.7670121,22.28893 11.7377283,22.3637555 C12.7084446,22.438581 13.1729098,22.3637555 13.904266,21.9699426 C14.6356223,21.5761297 14.9496447,21.1122116 15.0205687,20.9234696 C15.0914928,20.7347275 15.0888725,20.3146557 14.9274241,20.0887457 Z M11.6386792,2.9291259 C9.7595761,2.40688587 6.23608304,1.4408677 3.79594619,3.15416184 C1.35580933,4.86745597 1.82397796,9.13257934 2.09376888,10.4430745 C2.36355979,11.7535697 3.02612322,15.002395 4.0166842,17.6305182 C5.00724519,20.2586415 6.09823037,21.7851516 6.75722388,21.9178795 C7.41621739,22.0506073 7.73820561,21.7984384 8.11476692,21.3240307 C8.49132823,20.8496231 10.2982495,18.8123415 10.5428152,18.5270955 C9.67006505,17.8776522 8.81667049,16.2631697 8.94531205,15.0149824 C9.07395361,13.7667952 9.17073176,13.1050441 9.17073176,12.4124537 C9.17073176,11.7198633 8.98570033,10.9269927 9.13558417,8.82138918 C9.28546801,6.71578565 10.4194842,3.81535351 11.6386792,2.9291259 Z" id="Path-3" fill="#336791"></path>
            <path d="M19.8961039,1.99558069 C21.2312762,1.78346877 23.8460614,1.41611553 26.0980349,2.55709039 C28.3500084,3.69806525 28.8626073,4.88801588 28.9460861,5.61727285 C29.0295649,6.34652982 29.0706064,8.2367432 28.1824226,11.0582648 C27.2942387,13.8797864 26.0996752,16.3875243 24.9690817,18.0779221 C24.8233777,17.897599 24.8150543,17.8971449 24.8150543,17.8971449 C24.8150543,17.8971449 25.5118685,16.5033789 25.5118685,15.5931002 C25.5118685,14.6828215 25.4807384,14.0953916 25.3754127,13.408054 C25.2700871,12.7207164 25.2204604,11.9223951 25.3754127,10.9581474 C25.530365,9.99389974 25.9142035,8.65873133 24.8880808,6.77927725 C23.861958,4.89982316 22.1971456,2.99843129 19.8961039,1.99558069 Z" id="Path-4" fill="#336791"></path>
            <path d="M24.7272727,9.23342933 C23.790895,9.0956108 22.6166716,9.0378182 22.1305815,9.64330795 C21.6444914,10.2487977 21.6842719,11.0827927 21.7597154,11.5517264 C21.8351588,12.0206601 22.1346294,12.9075381 22.8544475,14.3383259 C23.5742656,15.7691137 24.2854995,17.0909091 24.2854995,17.0909091 C24.2854995,17.0909091 24.8021578,16.0905463 24.6431753,14.6218884 C24.4841928,13.1532304 24.3425183,12.2906161 24.4928468,11.2285367 C24.6431753,10.1664573 24.6431753,10.0977233 24.7272727,9.23342933 Z M24.0300141,9.78402195 C24.0541988,9.95851961 23.7122062,10.4241605 23.2656402,10.4863772 C22.8195852,10.5488506 22.4380795,10.1849643 22.4136393,10.0106378 C22.3900506,9.83614018 22.7321284,9.64392746 23.1782686,9.58145404 C23.6244088,9.51898063 24.0058293,9.60995219 24.0300141,9.78410753 L24.0300141,9.78402195 Z" id="Combined-Shape" fill="#336791"></path>
            <path d="M24.6233766,8.34221921 C23.51855,5.51378347 21.4755191,3.31150388 18.890668,2.5048078 C16.3058169,1.69811172 13.8455656,2.05122043 12.3932999,3.42449867 C10.9410342,4.7977769 10.2058816,6.56681658 10.025974,9.2479955 C11.9865676,8.14713539 13.8091366,8.34550557 14.4115786,8.94334309 C15.0140207,9.54118061 15.2123874,10.0825207 15.3105569,10.7883186 C15.4087265,11.4941165 15.7502921,13.4932712 15.4941703,14.5660225 C15.2380485,15.6387737 15.1311389,16.0046083 14.9574543,16.3619823 C14.7837698,16.7193563 14.0492464,18.4220395 14.0492464,18.8432527 C14.6960884,18.7423545 15.3317431,19.1363679 15.5632526,19.4866797 C15.794762,19.8369916 15.968097,20.0708824 15.968097,20.9173644 C15.968097,21.7638464 15.8375539,25.1699819 16.0764051,27.1756394 C16.3152563,29.1812969 17.4444156,30.1818182 18.2359948,30.1818182 C19.0275739,30.1818182 21.0048088,30.0144936 21.7173769,28.8905591 C22.429945,27.7666245 22.597896,25.391916 22.7086514,24.6641624 C22.8194067,23.9364089 23.1511834,20.6985768 23.1511834,20.3655359 C23.1511834,20.0324949 23.4014318,18.9663164 24.4442382,18.8196889 C23.4878545,17.875595 23.3977958,17.0735838 22.9234497,16.2933883 C22.4491035,15.5131929 21.4226586,13.580954 21.104167,12.3987041 C20.7856754,11.2164542 19.977455,7.85094361 24.6233766,8.34221921 Z" id="Path-6" fill="#336791"></path>
        </g>
    </g>
</svg>