<?xml version="1.0" encoding="UTF-8" standalone="no"?>
<svg width="32px" height="28px" viewBox="0 0 32 28" version="1.1" xmlns="http://www.w3.org/2000/svg" xmlns:xlink="http://www.w3.org/1999/xlink">
    <!-- Generator: Sketch 41.2 (35397) - http://www.bohemiancoding.com/sketch -->
    <title>redis</title>
    <desc>Created with Sketch.</desc>
    <defs></defs>
    <g id="-blocks/icons" stroke="none" stroke-width="1" fill="none" fill-rule="evenodd">
        <g id="redis" transform="translate(0.000000, -0.000000)">
            <g id="Group" transform="translate(0.125421, 0.165033)">
                <path d="M30.4688372,20.9376744 C28.779907,21.8180465 20.0305116,25.4154419 18.167814,26.3864186 C16.3051163,27.3577674 15.2703256,27.3482791 13.7988837,26.6448372 C12.3274419,25.9413953 3.01655814,22.1804651 1.33934884,21.3787907 C0.501023256,20.9780465 0.0602790698,20.64 0.0602790698,20.3205581 L0.0602790698,17.1214884 C0.0602790698,17.1214884 12.1817674,14.4826047 14.1387907,13.7806512 C16.0956279,13.0785116 16.7745116,13.0532093 18.439814,13.6632558 C20.1053023,14.2733023 30.0628837,16.0699535 31.7088372,16.6727442 C31.7088372,16.6727442 31.708093,19.5298605 31.708093,19.8264186 C31.7082791,20.1426977 31.3285581,20.4896744 30.4688372,20.9376744 L30.4688372,20.9376744 Z" id="Shape" fill="#A41E11"></path>
                <path d="M30.4688372,17.7376744 C28.779907,18.6176744 20.0305116,22.2154419 18.167814,23.1864186 C16.3051163,24.1577674 15.2703256,24.1482791 13.7988837,23.4448372 C12.3272558,22.7417674 3.01655814,18.980093 1.33934884,18.1787907 C-0.337860465,17.3771163 -0.373023256,16.8253023 1.27460465,16.1802791 C2.92204651,15.5348837 12.1817674,11.9019535 14.1389767,11.199814 C16.095814,10.4980465 16.7746977,10.4723721 18.44,11.0826047 C20.1054884,11.6926512 28.8026047,15.1544186 30.4483721,15.7572093 C32.0945116,16.3605581 32.1577674,16.8573023 30.4688372,17.7376744 L30.4688372,17.7376744 Z" id="Shape" fill="#D82C20"></path>
                <path d="M30.4688372,15.7209302 C28.779907,16.6013023 20.0305116,20.1986977 18.167814,21.1700465 C16.3051163,22.1410233 15.2703256,22.1315349 13.7988837,21.428093 C12.3272558,20.7250233 3.01655814,16.9637209 1.33934884,16.1620465 C0.501023256,15.7613023 0.0602790698,15.4236279 0.0602790698,15.104186 L0.0602790698,11.9047442 C0.0602790698,11.9047442 12.1817674,9.26604651 14.1387907,8.56390698 C16.0956279,7.86195349 16.7745116,7.83646512 18.439814,8.44651163 C20.1053023,9.05655814 30.0628837,10.8528372 31.7088372,11.455814 C31.7088372,11.455814 31.708093,14.3129302 31.708093,14.6098605 C31.7082791,14.9259535 31.3285581,15.2729302 30.4688372,15.7209302 L30.4688372,15.7209302 Z" id="Shape" fill="#A41E11"></path>
                <path d="M30.4688372,12.5209302 C28.779907,13.4013023 20.0305116,16.9986977 18.167814,17.9700465 C16.3051163,18.9410233 15.2703256,18.9315349 13.7988837,18.228093 C12.3272558,17.5250233 3.01655814,13.7635349 1.33934884,12.9620465 C-0.337860465,12.1605581 -0.373023256,11.6087442 1.27460465,10.9633488 C2.92204651,10.3183256 12.1817674,6.6852093 14.1389767,5.98325581 C16.095814,5.28130233 16.7746977,5.25581395 18.44,5.86586047 C20.1054884,6.47590698 28.8026047,9.93748837 30.4483721,10.5404651 C32.0945116,11.1436279 32.1577674,11.6405581 30.4688372,12.5209302 L30.4688372,12.5209302 Z" id="Shape" fill="#D82C20"></path>
                <path d="M30.4688372,10.3106977 C28.779907,11.1910698 20.0305116,14.7886512 18.167814,15.76 C16.3051163,16.7309767 15.2703256,16.7214884 13.7988837,16.0180465 C12.3272558,15.3149767 3.01655814,11.5534884 1.33934884,10.752 C0.501023256,10.3512558 0.0602790698,10.0133953 0.0602790698,9.69413953 L0.0602790698,6.49469767 C0.0602790698,6.49469767 12.1817674,3.856 14.1387907,3.15404651 C16.0956279,2.45190698 16.7745116,2.42660465 18.439814,3.03665116 C20.1053023,3.64669767 30.0628837,5.44297674 31.7088372,6.04595349 C31.7088372,6.04595349 31.708093,8.90306977 31.708093,9.19981395 C31.7082791,9.51572093 31.3285581,9.86269767 30.4688372,10.3106977 L30.4688372,10.3106977 Z" id="Shape" fill="#A41E11"></path>
                <path d="M30.4688372,7.11069767 C28.779907,7.99106977 20.0305116,11.5886512 18.167814,12.559814 C16.3051163,13.5307907 15.2703256,13.5213023 13.7988837,12.8180465 C12.3274419,12.1147907 3.01655814,8.35348837 1.33934884,7.552 C-0.337860465,6.75051163 -0.373023256,6.19851163 1.27460465,5.55330233 C2.92204651,4.90809302 12.1817674,1.27534884 14.1389767,0.573209302 C16.095814,-0.128930233 16.7746977,-0.154232558 18.44,0.456 C20.1054884,1.06604651 28.8026047,4.52762791 30.4483721,5.13060465 C32.0945116,5.73339535 32.1577674,6.23051163 30.4688372,7.11069767 Z" id="Shape" fill="#D82C20"></path>
                <polygon id="Shape" fill="#FFFFFF" points="20.0316279 4.02976744 17.2893023 4.3144186 16.6753488 5.79162791 15.6837209 4.14325581 12.5172093 3.85860465 14.88 3.00651163 14.1711628 1.69860465 16.3832558 2.56372093 18.4688372 1.88093023 17.9051163 3.23348837"></polygon>
                <polygon id="Shape" fill="#FFFFFF" points="16.5116279 11.1962791 11.3934884 9.07348837 18.7274419 7.94790698"></polygon>
                <ellipse id="Oval" fill="#FFFFFF" cx="9.41581395" cy="6.37023256" rx="3.91981395" ry="1.51944186"></ellipse>
                <polygon id="Shape" fill="#7A0C00" points="23.2725581 4.43348837 27.6130233 6.14883721 23.2762791 7.86232558"></polygon>
                <polygon id="Shape" fill="#AD2115" points="18.4706977 6.33302326 23.2725581 4.43348837 23.2762791 7.86232558 22.8055814 8.04651163"></polygon>
            </g>
        </g>
    </g>
</svg>