<?xml version="1.0" encoding="UTF-8" standalone="no"?>
<svg width="32px" height="29px" viewBox="0 0 32 29" version="1.1" xmlns="http://www.w3.org/2000/svg" xmlns:xlink="http://www.w3.org/1999/xlink">
    <!-- Generator: Sketch 41.2 (35397) - http://www.bohemiancoding.com/sketch -->
    <title>s3</title>
    <desc>Created with Sketch.</desc>
    <defs></defs>
    <g id="-blocks/icons" stroke="none" stroke-width="1" fill="none" fill-rule="evenodd">
        <path d="M15.3650794,2.92063492 L8.38095238,5.36829998 L8.38095238,14.984127 L15.3650794,12.5364619 L15.3650794,2.92063492 Z M0,2.92063492 L6.98412698,5.36829998 L6.98412698,14.984127 L0,12.5364619 L0,2.92063492 Z M13.5873016,2.0952381 L7.68316229,4.19047619 L1.77777778,2.0952381 L7.68316229,0 L13.5873016,2.0952381 Z M32,2.92063492 L25.015873,5.36829998 L25.015873,14.984127 L32,12.5364619 L32,2.92063492 Z M16.6349206,2.92063492 L23.6190476,5.36829998 L23.6190476,14.984127 L16.6349206,12.5364619 L16.6349206,2.92063492 Z M30.2222222,2.0952381 L24.3180829,4.19047619 L18.4126984,2.0952381 L24.3180829,0 L30.2222222,2.0952381 Z M23.6190476,16.6349206 L16.6349206,19.0825857 L16.6349206,28.6984127 L23.6190476,26.4255809 L23.6190476,16.6349206 Z M8.38095238,16.6349206 L15.3650794,19.0825857 L15.3650794,28.6984127 L8.38095238,26.4255809 L8.38095238,16.6349206 Z M21.8412698,15.8095238 L15.9371305,17.9047619 L10.031746,15.8095238 L15.9371305,13.7142857 L21.8412698,15.8095238 Z" id="s3" fill="#FEBE10"></path>
    </g>
</svg>